<?xml version="1.0" standalone="no"?>
 <!DOCTYPE svg PUBLIC "-//W3C//DTD SVG 1.1//EN" 
 "http://www.w3.org/Graphics/SVG/1.1/DTD/svg11.dtd"> 
<svg xmlns="http://www.w3.org/2000/svg" version="1.1" 
    width="29.7002cm" height="21.0007cm" viewBox="0 0 116930 82680 ">
<title>SVG Picture created as pap-F_Cu.svg date 2015/04/10 17:49:45 </title>
  <desc>Picture generated by PCBNEW </desc>
<g style="fill:#000000; fill-opacity:1;stroke:#000000; stroke-opacity:1;
stroke-linecap:round; stroke-linejoin:round; "
 transform="translate(0 0) scale(1 1)">
</g>
<g style="fill:#000000; fill-opacity:0.0; 
stroke:#000000; stroke-width:39.3701; stroke-opacity:1; 
stroke-linecap:round; stroke-linejoin:round;">
</g>
<g style="fill:#000000; fill-opacity:1.0; 
stroke:#000000; stroke-width:39.3701; stroke-opacity:1; 
stroke-linecap:round; stroke-linejoin:round;">
<polyline style="fill-rule:evenodd;"
points="56697,30726
56697,30273
56146,30273
56146,30726
56697,30726
" /> 
<polyline style="fill-rule:evenodd;"
points="55713,30726
55713,30273
55162,30273
55162,30726
55713,30726
" /> 
<polyline style="fill-rule:evenodd;"
points="51134,27204
51725,27204
51725,26063
51134,26063
51134,27204
" /> 
<polyline style="fill-rule:evenodd;"
points="51134,28936
51725,28936
51725,27795
51134,27795
51134,28936
" /> 
<polyline style="fill-rule:evenodd;"
points="59225,32394
58634,32394
58634,33771
59225,33771
59225,32394
" /> 
<polyline style="fill-rule:evenodd;"
points="59225,30228
58634,30228
58634,31605
59225,31605
59225,30228
" /> 
<polyline style="fill-rule:evenodd;"
points="56225,32027
56225,32972
56973,32972
56973,32027
56225,32027
" /> 
<polyline style="fill-rule:evenodd;"
points="54886,32027
54886,32972
55634,32972
55634,32027
54886,32027
" /> 
<polyline style="fill-rule:evenodd;"
points="54118,34858
53804,34858
53804,35448
54118,35448
54118,34858
" /> 
<polyline style="fill-rule:evenodd;"
points="54906,34858
54591,34858
54591,35448
54906,35448
54906,34858
" /> 
<polyline style="fill-rule:evenodd;"
points="55693,34858
55378,34858
55378,35448
55693,35448
55693,34858
" /> 
<polyline style="fill-rule:evenodd;"
points="56481,34858
56166,34858
56166,35448
56481,35448
56481,34858
" /> 
<polyline style="fill-rule:evenodd;"
points="57268,34858
56953,34858
56953,35448
57268,35448
57268,34858
" /> 
<polyline style="fill-rule:evenodd;"
points="58055,34858
57741,34858
57741,35448
58055,35448
58055,34858
" /> 
<polyline style="fill-rule:evenodd;"
points="58843,34858
58528,34858
58528,35448
58843,35448
58843,34858
" /> 
<polyline style="fill-rule:evenodd;"
points="59630,34858
59315,34858
59315,35448
59630,35448
59630,34858
" /> 
<polyline style="fill-rule:evenodd;"
points="59630,41551
59315,41551
59315,42141
59630,42141
59630,41551
" /> 
<polyline style="fill-rule:evenodd;"
points="58843,41551
58528,41551
58528,42141
58843,42141
58843,41551
" /> 
<polyline style="fill-rule:evenodd;"
points="58055,41551
57741,41551
57741,42141
58055,42141
58055,41551
" /> 
<polyline style="fill-rule:evenodd;"
points="57268,41551
56953,41551
56953,42141
57268,42141
57268,41551
" /> 
<polyline style="fill-rule:evenodd;"
points="56481,41551
56166,41551
56166,42141
56481,42141
56481,41551
" /> 
<polyline style="fill-rule:evenodd;"
points="55693,41551
55378,41551
55378,42141
55693,42141
55693,41551
" /> 
<polyline style="fill-rule:evenodd;"
points="54906,41551
54591,41551
54591,42141
54906,42141
54906,41551
" /> 
<polyline style="fill-rule:evenodd;"
points="54118,41551
53804,41551
53804,42141
54118,42141
54118,41551
" /> 
<polyline style="fill-rule:evenodd;"
points="50810,35179
50049,35179
50049,35820
50810,35820
50810,35179
" /> 
</g>
<g style="fill:#000000; fill-opacity:1.0; 
stroke:#000000; stroke-width:680; stroke-opacity:1; 
stroke-linecap:round; stroke-linejoin:round;">
</g>
<g style="fill:#000000; fill-opacity:0.0; 
stroke:#000000; stroke-width:680; stroke-opacity:1; 
stroke-linecap:round; stroke-linejoin:round;">
<path d="M50370 36500
L50490 36500
" />
<path d="M50370 37500
L50490 37500
" />
</g>
<g style="fill:#000000; fill-opacity:0.0; 
stroke:#000000; stroke-width:39.3701; stroke-opacity:1; 
stroke-linecap:round; stroke-linejoin:round;">
</g>
<g style="fill:#000000; fill-opacity:1.0; 
stroke:#000000; stroke-width:39.3701; stroke-opacity:1; 
stroke-linecap:round; stroke-linejoin:round;">
<polyline style="fill-rule:evenodd;"
points="51473,29479
49386,29479
49386,30582
51473,30582
51473,29479
" /> 
<polyline style="fill-rule:evenodd;"
points="51473,33417
49386,33417
49386,34520
51473,34520
51473,33417
" /> 
<circle cx="57930" cy="34000" r="373.815" /> 
<circle cx="53930" cy="34000" r="373.815" /> 
</g>
<g style="fill:#000000; fill-opacity:1.0; 
stroke:#000000; stroke-width:780; stroke-opacity:1; 
stroke-linecap:round; stroke-linejoin:round;">
</g>
<g style="fill:#000000; fill-opacity:0.0; 
stroke:#000000; stroke-width:780; stroke-opacity:1; 
stroke-linecap:round; stroke-linejoin:round;">
<path d="M74320 38000
L73540 38000
" />
<path d="M74320 36031
L73540 36031
" />
<path d="M73540 27000
L74320 27000
" />
<path d="M73540 28968
L74320 28968
" />
</g>
<g style="fill:#000000; fill-opacity:0.0; 
stroke:#000000; stroke-width:39.3701; stroke-opacity:1; 
stroke-linecap:round; stroke-linejoin:round;">
</g>
<g style="fill:#000000; fill-opacity:1.0; 
stroke:#000000; stroke-width:39.3701; stroke-opacity:1; 
stroke-linecap:round; stroke-linejoin:round;">
<polyline style="fill-rule:evenodd;"
points="50049,42320
50810,42320
50810,41679
50049,41679
50049,42320
" /> 
</g>
<g style="fill:#000000; fill-opacity:1.0; 
stroke:#000000; stroke-width:680; stroke-opacity:1; 
stroke-linecap:round; stroke-linejoin:round;">
</g>
<g style="fill:#000000; fill-opacity:0.0; 
stroke:#000000; stroke-width:680; stroke-opacity:1; 
stroke-linecap:round; stroke-linejoin:round;">
<path d="M50490 41000
L50370 41000
" />
<path d="M50490 40000
L50370 40000
" />
</g>
<g style="fill:#000000; fill-opacity:0.0; 
stroke:#000000; stroke-width:39.3701; stroke-opacity:1; 
stroke-linecap:round; stroke-linejoin:round;">
</g>
<g style="fill:#000000; fill-opacity:1.0; 
stroke:#000000; stroke-width:39.3701; stroke-opacity:1; 
stroke-linecap:round; stroke-linejoin:round;">
<polyline style="fill-rule:evenodd;"
points="71666,39692
71193,39692
71193,40244
71666,40244
71666,39692
" /> 
<polyline style="fill-rule:evenodd;"
points="71666,40755
71193,40755
71193,41307
71666,41307
71666,40755
" /> 
<polyline style="fill-rule:evenodd;"
points="48666,35692
48193,35692
48193,36244
48666,36244
48666,35692
" /> 
<polyline style="fill-rule:evenodd;"
points="48666,36755
48193,36755
48193,37307
48666,37307
48666,36755
" /> 
<circle cx="59930" cy="26000" r="373.815" /> 
<circle cx="59930" cy="30000" r="373.815" /> 
<polyline style="fill-rule:evenodd;"
points="54166,26692
53693,26692
53693,27244
54166,27244
54166,26692
" /> 
<polyline style="fill-rule:evenodd;"
points="54166,27755
53693,27755
53693,28307
54166,28307
54166,27755
" /> 
<polyline style="fill-rule:evenodd;"
points="53693,30807
54166,30807
54166,30255
53693,30255
53693,30807
" /> 
<polyline style="fill-rule:evenodd;"
points="53693,29744
54166,29744
54166,29192
53693,29192
53693,29744
" /> 
<polyline style="fill-rule:evenodd;"
points="48174,41811
48685,41811
48685,41259
48174,41259
48174,41811
" /> 
<polyline style="fill-rule:evenodd;"
points="48174,38740
48685,38740
48685,38188
48174,38188
48174,38740
" /> 
</g>
<g style="fill:#000000; fill-opacity:1.0; 
stroke:#000000; stroke-width:591; stroke-opacity:1; 
stroke-linecap:round; stroke-linejoin:round;">
</g>
<g style="fill:#000000; fill-opacity:0.0; 
stroke:#000000; stroke-width:591; stroke-opacity:1; 
stroke-linecap:round; stroke-linejoin:round;">
<path d="M74430 40696
L74430 40303
" />
<path d="M75430 40696
L75430 40303
" />
<path d="M73430 40696
L73430 40303
" />
</g>
<g style="fill:#000000; fill-opacity:0.0; 
stroke:#000000; stroke-width:39.3701; stroke-opacity:1; 
stroke-linecap:round; stroke-linejoin:round;">
</g>
<g style="fill:#000000; fill-opacity:1.0; 
stroke:#000000; stroke-width:39.3701; stroke-opacity:1; 
stroke-linecap:round; stroke-linejoin:round;">
<polyline style="fill-rule:evenodd;"
points="66398,38200
65807,38200
65807,38712
66398,38712
66398,38200
" /> 
<polyline style="fill-rule:evenodd;"
points="66398,40287
65807,40287
65807,40799
66398,40799
66398,40287
" /> 
<polyline style="fill-rule:evenodd;"
points="63052,40287
62461,40287
62461,40799
63052,40799
63052,40287
" /> 
<polyline style="fill-rule:evenodd;"
points="63052,38200
62461,38200
62461,38712
63052,38712
63052,38200
" /> 
<circle cx="69985.1" cy="33468.5" r="280.315" /> 
<circle cx="69985.1" cy="29531.5" r="280.315" /> 
<circle cx="61874.9" cy="28626" r="280.315" /> 
<circle cx="61874.9" cy="31500" r="280.315" /> 
<circle cx="61874.9" cy="34374" r="280.315" /> 
<circle cx="74808" cy="32500" r="338.583" /> 
<polyline style="fill-rule:evenodd;"
points="73091,32161
73091,32838
73768,32838
73768,32161
73091,32161
" /> 
<polyline style="fill-rule:evenodd;"
points="67091,40838
67768,40838
67768,40161
67091,40161
67091,40838
" /> 
<circle cx="67430" cy="39500" r="338.583" /> 
<circle cx="67430" cy="38500" r="338.583" /> 
<circle cx="70430" cy="38500" r="338.583" /> 
<circle cx="70430" cy="39500" r="338.583" /> 
<circle cx="70430" cy="40500" r="338.583" /> 
<polyline style="fill-rule:evenodd;"
points="58768,29838
58768,29161
58091,29161
58091,29838
58768,29838
" /> 
<circle cx="57430" cy="29500" r="338.583" /> 
<circle cx="56430" cy="29500" r="338.583" /> 
<circle cx="55430" cy="29500" r="338.583" /> 
<circle cx="55430" cy="26500" r="338.583" /> 
<circle cx="56430" cy="26500" r="338.583" /> 
<circle cx="57430" cy="26500" r="338.583" /> 
<circle cx="58430" cy="26500" r="338.583" /> 
<circle cx="71930" cy="32500" r="338.583" /> 
<circle cx="62430" cy="39500" r="338.583" /> 
<circle cx="50430" cy="31000" r="338.583" /> 
<circle cx="53930" cy="31500" r="338.583" /> 
<circle cx="52930" cy="35000" r="338.583" /> 
<circle cx="52930" cy="38500" r="338.583" /> 
</g>
<g style="fill:#000000; fill-opacity:1.0; 
stroke:#000000; stroke-width:196.85; stroke-opacity:1; 
stroke-linecap:round; stroke-linejoin:round;">
</g>
<g style="fill:#000000; fill-opacity:0.0; 
stroke:#000000; stroke-width:196.85; stroke-opacity:1; 
stroke-linecap:round; stroke-linejoin:round;">
<path d="M60304 31259
L60170 31259
" />
<path d="M52827 28031
L51430 26634
" />
<path d="M53930 28031
L52827 28031
" />
<path d="M50461 34000
L50430 33969
" />
<path d="M53930 34000
L50461 34000
" />
<path d="M52930 29000
L52930 33000
" />
<path d="M52930 33000
L53930 34000
" />
<path d="M53898 28031
L52930 29000
" />
<path d="M53930 28031
L53898 28031
" />
<path d="M48430 35968
L48461 35968
" />
<path d="M48461 35968
L48930 35500
" />
<path d="M48930 35500
L50430 35500
" />
<path d="M57930 34000
L55930 34000
" />
<path d="M55536 34393
L55536 34500
" />
<path d="M55536 34500
L55536 35153
" />
<path d="M55930 34000
L55536 34393
" />
<path d="M58013 34000
L58930 33083
" />
<path d="M57930 34000
L58013 34000
" />
<path d="M59430 35110
L59473 35153
" />
<path d="M58930 33083
L59430 35110
" />
<path d="M55536 35893
L55430 36000
" />
<path d="M55430 36000
L51430 36000
" />
<path d="M51430 36000
L50430 35500
" />
<path d="M55536 35153
L55536 35893
" />
<path d="M59430 29500
L58430 29500
" />
<path d="M59930 30000
L59430 29500
" />
<path d="M58430 26500
L58430 29500
" />
<path d="M57430 26500
L58430 26500
" />
<path d="M66103 32559
L61930 28500
" />
<path d="M66103 38456
L66103 32559
" />
<path d="M64973 40543
L64430 40000
" />
<path d="M64430 40000
L64430 36633
" />
<path d="M64430 36633
L61930 34500
" />
<path d="M66103 40543
L64973 40543
" />
<path d="M73430 32500
L71930 32500
" />
<path d="M61473 40543
L60930 40000
" />
<path d="M60930 40000
L60930 27000
" />
<path d="M60930 27000
L59930 26000
" />
<path d="M62756 40543
L61473 40543
" />
<path d="M62430 39500
L62756 39826
" />
<path d="M62756 39826
L62756 40543
" />
<path d="M56430 25500
L59430 25500
" />
<path d="M59430 25500
L59930 26000
" />
<path d="M56430 26500
L56430 25500
" />
<path d="M55437 29507
L55430 29500
" />
<path d="M55437 30500
L55437 29507
" />
<path d="M72221 27000
L69930 29500
" />
<path d="M73930 27000
L72221 27000
" />
<path d="M72961 28968
L69930 32000
" />
<path d="M69930 32000
L69930 33500
" />
<path d="M73930 28968
L72961 28968
" />
<path d="M56422 29507
L56430 29500
" />
<path d="M56422 30500
L56422 29507
" />
<path d="M50430 30031
L51399 30031
" />
<path d="M56599 32330
L57430 31500
" />
<path d="M56599 32500
L56599 32330
" />
<path d="M57430 31500
L57430 29500
" />
<path d="M50430 30031
L50430 30000
" />
<path d="M53930 31500
L57430 31500
" />
<path d="M50430 30031
L50430 31000
" />
<path d="M48430 38464
L48430 37031
" />
<path d="M53083 35153
L52930 35000
" />
<path d="M52930 38500
L52894 38464
" />
<path d="M52894 38464
L48430 38464
" />
<path d="M53961 35153
L53083 35153
" />
<path d="M67430 42000
L60930 42000
" />
<path d="M60930 42000
L58685 39755
" />
<path d="M58685 39755
L58685 35153
" />
<path d="M67430 40500
L67430 42000
" />
<path d="M57111 41846
L57111 37681
" />
<path d="M57111 37681
L55930 36500
" />
<path d="M55930 36500
L50430 36500
" />
<path d="M54748 41846
L54748 41318
" />
<path d="M53930 41000
L50430 41000
" />
<path d="M54748 41318
L53930 41000
" />
<path d="M53961 41846
L53930 42000
" />
<path d="M50430 42000
L50430 42000
" />
<path d="M53930 42000
L50430 42000
" />
<path d="M75430 39500
L73930 38000
" />
<path d="M75430 40500
L75430 39500
" />
<path d="M71461 41000
L71430 41031
" />
<path d="M72430 38500
L74430 40500
" />
<path d="M72430 37000
L72430 38500
" />
<path d="M73398 36031
L72430 37000
" />
<path d="M73930 36031
L73398 36031
" />
<path d="M74430 41000
L74430 41500
" />
<path d="M74430 41500
L71430 41500
" />
<path d="M71430 41500
L71430 41031
" />
<path d="M74430 40500
L74430 41000
" />
<path d="M70961 39968
L70430 40500
" />
<path d="M71430 39968
L70961 39968
" />
<path d="M54398 26500
L53930 26968
" />
<path d="M54398 26968
L54930 27500
" />
<path d="M54930 27500
L54930 28468
" />
<path d="M54930 28468
L53930 29468
" />
<path d="M53930 26968
L54398 26968
" />
<path d="M55430 26500
L54398 26500
" />
<path d="M71430 38500
L70430 38500
" />
<path d="M73430 40500
L71430 38500
" />
</g>
<g style="fill:#000000; fill-opacity:1.0; 
stroke:#000000; stroke-width:100; stroke-opacity:1; 
stroke-linecap:round; stroke-linejoin:round;">
<polyline style="fill-rule:evenodd;"
points="47480,42950
47899,42950
47899,38759
47899,38169
47918,38073
47973,37990
48056,37934
48081,37929
48081,37563
48078,37563
47994,37508
47938,37425
47919,37326
47919,36736
47937,36640
47992,36557
48075,36501
48079,36500
48078,36500
47994,36445
47938,36362
47919,36263
47919,35673
47937,35577
47992,35494
48075,35438
48174,35418
48518,35418
48683,35253
48796,35178
48818,35173
48930,35151
48930,35151
49776,35151
49793,35064
49848,34980
49931,34924
50030,34905
50830,34905
50925,34923
51009,34978
51065,35061
51084,35160
51084,35437
51512,35651
53607,35651
53605,35649
53549,35566
53536,35501
53288,35501
53275,35515
53051,35608
52809,35608
52585,35515
52414,35345
52321,35121
52321,34879
52414,34655
52584,34484
52808,34391
53050,34391
53274,34484
53445,34654
53507,34805
53535,34805
53547,34743
53602,34659
53686,34603
53698,34600
53565,34545
53384,34364
53377,34348
51747,34348
51747,34540
51729,34635
51674,34719
51591,34775
51493,34794
49367,34794
49271,34776
49187,34721
49131,34638
49112,34540
49112,33398
49112,30602
49112,29460
49130,29364
49185,29280
49268,29224
49367,29205
51061,29205
50973,29168
50903,29098
50865,29006
50865,28478
50865,28253
50865,27725
50903,27633
50973,27563
51065,27525
51164,27525
51317,27525
51380,27588
51380,28316
50927,28316
50865,28253
50865,28478
50927,28416
51380,28416
51380,28423
51480,28423
51480,28416
51932,28416
51995,28478
51995,29006
51956,29098
51886,29168
51794,29206
51695,29206
51542,29206
51480,29144
51480,29205
51493,29205
51588,29223
51672,29278
51728,29361
51747,29460
51747,30602
51729,30697
51674,30781
51591,30837
51493,30856
51029,30856
51038,30878
51038,31120
50945,31344
50775,31515
50551,31608
50309,31608
50085,31515
49914,31345
49821,31121
49821,30879
49830,30856
49367,30856
49271,30838
49187,30783
49131,30700
49112,30602
49112,33398
49130,33302
49185,33218
49268,33162
49367,33143
51493,33143
51588,33161
51672,33216
51728,33299
51747,33398
51747,33651
53088,33651
52683,33246
52683,33246
52683,33246
52608,33133
52581,33000
52581,29000
52608,28866
52683,28753
52683,28753
53057,28379
52827,28379
52827,28379
52827,28379
52716,28357
52694,28353
52694,28353
52581,28277
51970,27667
51995,27725
51995,28253
51932,28316
51480,28316
51480,27588
51542,27525
51695,27525
51794,27525
51852,27549
51776,27473
51745,27479
51115,27479
51019,27460
50935,27405
50879,27322
50860,27224
50860,26043
50878,25948
50933,25864
51016,25808
51115,25788
51745,25788
51840,25807
51924,25862
51980,25945
51999,26043
51999,26711
52971,27683
53429,27683
53437,27640
53492,27557
53575,27501
53579,27500
53578,27500
53494,27445
53438,27362
53419,27263
53419,26673
53437,26577
53492,26494
53575,26438
53674,26418
53987,26418
54152,26253
54265,26178
54287,26173
54398,26151
54398,26151
54918,26151
55084,25984
55308,25891
55550,25891
55774,25984
55930,26139
56081,25988
56081,25500
56108,25366
56183,25253
56296,25178
56430,25151
59429,25151
59430,25151
59563,25178
59676,25253
59676,25253
59785,25363
59801,25356
60057,25356
60294,25454
60475,25635
60573,25871
60573,26127
60566,26144
61176,26753
61251,26866
61256,26888
61278,27000
61278,27000
61278,39855
61324,39902
61324,34265
61324,31391
61324,28517
61408,28314
61562,28159
61765,28076
61983,28075
62186,28159
62340,28314
62410,28481
66346,32309
66347,32311
66349,32312
66386,32367
66423,32421
66423,32423
66425,32425
66437,32490
66451,32554
66451,32556
66451,32559
66451,37932
66513,37944
66597,37999
66653,38082
66673,38181
66673,38732
66654,38827
66599,38911
66516,38967
66418,38987
65788,38987
65692,38968
65609,38913
65553,38830
65533,38732
65533,38181
65551,38085
65606,38001
65689,37945
65754,37932
65754,32706
62083,29135
61984,29175
61765,29176
61563,29092
61408,28937
61324,28735
61324,28517
61324,31391
61408,31188
61562,31034
61765,30950
61983,30949
62186,31033
62340,31188
62424,31390
62424,31608
62341,31811
62186,31965
61984,32049
61765,32050
61563,31966
61408,31811
61324,31609
61324,31391
61324,34265
61408,34062
61562,33908
61765,33824
61983,33823
62186,33907
62340,34062
62424,34264
62424,34464
64656,36368
64664,36379
64676,36387
64706,36432
64740,36475
64744,36488
64751,36500
64762,36553
64777,36606
64775,36620
64778,36633
64778,39855
65117,40194
65547,40194
65551,40172
65606,40088
65689,40032
65788,40012
66418,40012
66513,40031
66597,40086
66653,40169
66673,40267
66673,40818
66654,40914
66599,40998
66516,41054
66418,41073
65788,41073
65692,41055
65609,41000
65553,40917
65547,40891
64973,40891
64973,40891
64973,40891
64862,40869
64839,40865
64839,40865
64726,40789
64183,40246
64183,40246
64183,40246
64108,40133
64108,40133
64103,40111
64081,40000
64081,40000
64081,39999
64081,36794
61890,34924
61765,34924
61563,34840
61408,34685
61324,34483
61324,34265
61324,39902
61617,40194
62201,40194
62205,40172
62260,40088
62260,40088
62085,40015
61914,39845
61821,39621
61821,39379
61914,39155
62084,38984
62265,38909
62229,38873
62191,38782
62191,38569
62191,38344
62191,38131
62229,38039
62300,37969
62392,37931
62491,37931
62644,37931
62706,37993
62706,38406
62254,38406
62191,38344
62191,38569
62254,38506
62706,38506
62706,38514
62806,38514
62806,38506
62806,38406
62806,37993
62869,37931
63022,37931
63121,37931
63213,37969
63283,38039
63321,38131
63321,38344
63259,38406
62806,38406
62806,38506
63259,38506
63321,38569
63321,38782
63283,38873
63213,38944
63121,38982
63022,38982
62869,38982
62806,38919
62806,38982
62806,38982
62769,38982
62774,38984
62806,39016
62945,39154
63038,39378
63038,39620
63035,39628
63078,39693
63083,39715
63105,39826
63105,39826
63105,40019
63167,40031
63250,40086
63306,40169
63326,40267
63326,40818
63308,40914
63253,40998
63170,41054
63071,41073
62441,41073
62346,41055
62262,41000
62206,40917
62201,40891
61473,40891
61473,40891
61473,40891
61362,40869
61339,40865
61339,40865
61226,40789
60683,40246
60683,40246
60683,40246
60608,40133
60608,40133
60603,40111
60581,40000
60581,40000
60581,39999
60581,31459
60550,31506
60437,31581
60304,31608
60170,31608
60036,31581
59923,31506
59848,31393
59821,31259
59848,31126
59923,31013
60036,30937
60170,30911
60304,30911
60437,30937
60550,31013
60581,31060
60581,27144
60074,26636
60058,26643
59802,26643
59565,26545
59384,26364
59286,26128
59286,25872
59293,25855
59285,25848
56778,25848
56778,25988
56930,26139
57084,25984
57308,25891
57550,25891
57774,25984
57930,26139
58084,25984
58308,25891
58550,25891
58774,25984
58945,26154
59038,26378
59038,26620
58945,26844
58778,27011
58778,28886
58788,28886
58883,28905
58967,28960
59023,29043
59043,29141
59043,29151
59429,29151
59430,29151
59563,29178
59676,29253
59676,29253
59785,29363
59801,29356
60057,29356
60294,29454
60475,29635
60573,29871
60573,30127
60475,30364
60294,30545
60058,30643
59802,30643
59565,30545
59495,30475
59495,30804
59432,30867
58980,30867
58980,30859
58880,30859
58880,30867
58427,30867
58365,30804
58365,30158
58383,30113
58071,30113
57976,30094
57892,30039
57836,29956
57836,29954
57778,30011
57778,31499
57778,31500
57756,31611
57751,31633
57676,31746
57247,32174
57247,32992
57229,33087
57174,33171
57091,33227
56992,33247
56205,33247
56110,33228
56026,33173
55970,33090
55950,32992
55950,32007
55969,31912
56011,31848
55848,31848
55866,31866
55904,31958
55904,32057
55904,32387
55841,32450
55310,32450
55310,32442
55210,32442
55210,32450
54679,32450
54617,32387
54617,32057
54617,31958
54655,31866
54672,31848
54441,31848
54275,32015
54051,32108
53809,32108
53585,32015
53414,31845
53321,31621
53321,31379
53414,31155
53531,31037
53462,30968
53424,30876
53424,30643
53486,30581
53880,30581
53880,30589
53980,30589
53980,30581
54373,30581
54435,30643
54435,30876
54397,30968
54328,31038
54441,31151
54817,31151
54817,29595
54827,29353
54900,29177
55001,29142
55072,29213
55072,29071
55107,28970
55334,28887
55576,28897
55752,28970
55787,29071
55430,29429
55072,29071
55072,29213
55359,29500
55001,29857
54900,29822
54817,29595
54817,31151
54892,31151
54892,30795
54892,30696
54892,30612
54955,30550
55387,30550
55387,30933
55325,30996
55092,30996
55000,30958
54930,30887
54892,30795
54892,31151
57081,31151
57081,30011
56929,29860
56779,30011
56812,30017
56896,30072
56952,30155
56972,30253
56972,30746
56953,30841
56898,30925
56815,30981
56717,31000
56126,31000
56031,30982
55947,30927
55930,30902
55874,30958
55782,30996
55550,30996
55487,30933
55487,30550
55495,30550
55495,30450
55487,30450
55487,30442
55387,30442
55387,30450
54955,30450
54892,30387
54892,30303
54892,30204
54930,30112
55000,30041
55092,30003
55098,30003
55072,29928
55430,29570
55787,29928
55761,30003
55782,30003
55874,30041
55930,30097
55945,30074
56028,30018
56073,30009
56073,30003
55914,29845
55912,29839
55858,29857
55500,29500
55858,29142
55911,29160
55914,29155
56084,28984
56308,28891
56550,28891
56774,28984
56930,29139
57084,28984
57308,28891
57550,28891
57774,28984
57835,29045
57890,28962
57973,28906
58071,28886
58081,28886
58081,27011
57929,26860
57775,27015
57551,27108
57309,27108
57085,27015
56929,26860
56775,27015
56551,27108
56309,27108
56085,27015
55929,26860
55775,27015
55551,27108
55309,27108
55085,27015
54918,26848
54771,26848
55176,27253
55251,27366
55256,27388
55278,27500
55278,27500
55278,28468
55278,28468
55256,28579
55251,28601
55176,28714
54440,29450
54440,29763
54422,29859
54367,29942
54284,29998
54272,30001
54327,30024
54397,30094
54435,30186
54435,30418
54373,30481
53980,30481
53980,30473
53880,30473
53880,30481
53486,30481
53424,30418
53424,30186
53462,30094
53532,30024
53586,30001
53578,30000
53494,29945
53438,29862
53419,29763
53419,29173
53437,29077
53492,28994
53575,28938
53674,28918
53987,28918
54581,28324
54581,27644
54372,27435
54367,27442
54284,27498
54280,27499
54281,27499
54365,27554
54421,27637
54440,27736
54440,28326
54422,28422
54367,28505
54284,28561
54185,28581
53841,28581
53278,29144
53278,32855
53785,33363
53801,33356
54057,33356
54294,33454
54475,33635
54573,33871
54573,34127
54475,34364
54294,34545
54182,34592
54233,34602
54317,34657
54355,34712
54390,34659
54473,34603
54571,34583
54617,34583
54617,33041
54617,32942
54617,32612
54679,32550
55210,32550
55210,33179
55148,33242
54817,33242
54725,33204
54655,33133
54617,33041
54617,34583
54926,34583
55021,34602
55105,34657
55142,34712
55177,34659
55187,34652
55187,34500
55187,34393
55187,34393
55187,34393
55214,34260
55214,34260
55239,34222
55289,34147
55289,34147
55289,34147
55310,34126
55310,33179
55310,32550
55841,32550
55904,32612
55904,32942
55904,33041
55866,33133
55796,33204
55704,33242
55373,33242
55310,33179
55310,34126
55683,33753
55796,33678
55818,33673
55930,33651
55930,33651
57377,33651
57384,33635
57565,33454
57801,33356
58057,33356
58132,33387
58360,33160
58360,32374
58365,32349
58365,31675
58365,31029
58427,30967
58880,30967
58880,31813
58817,31875
58664,31875
58565,31875
58473,31837
58403,31767
58365,31675
58365,32349
58378,32279
58433,32195
58516,32139
58615,32119
58980,32119
58980,31813
58980,30967
59432,30967
59495,31029
59495,31675
59456,31767
59386,31837
59294,31875
59195,31875
59042,31875
58980,31813
58980,32119
59245,32119
59340,32138
59424,32193
59480,32276
59499,32374
59499,33791
59483,33873
59659,34585
59745,34602
59829,34657
59885,34740
59905,34838
59905,35468
59886,35563
59831,35647
59748,35703
59650,35723
59296,35723
59200,35704
59117,35649
59079,35594
59044,35647
59034,35654
59034,39611
61074,41651
67081,41651
67081,41113
67071,41113
66976,41094
66892,41039
66836,40956
66816,40858
66816,40141
66817,40139
66835,40046
66890,39962
66965,39911
66956,39902
67001,39857
66900,39822
66817,39595
66821,39489
66821,38379
66914,38155
67084,37984
67308,37891
67550,37891
67774,37984
67945,38154
68038,38378
68038,38620
67945,38844
67775,39015
67769,39017
67787,39071
67430,39429
67072,39071
67090,39018
67085,39015
66914,38845
66821,38621
66821,38379
66821,39489
66827,39353
66900,39177
67001,39142
67359,39500
67353,39505
67424,39576
67430,39570
67435,39576
67500,39511
67506,39505
67500,39500
67858,39142
67959,39177
68042,39404
68032,39646
67959,39822
67858,39857
67903,39902
67893,39911
67967,39960
68023,40043
68043,40141
68043,40858
68024,40953
67969,41037
67886,41093
67788,41113
67778,41113
67778,42000
67751,42133
67676,42246
67563,42321
67430,42348
60930,42348
60930,42348
60930,42348
60818,42326
60796,42321
60796,42321
60683,42246
59887,41450
59900,41481
59900,41733
59837,41796
59523,41796
59523,41343
59585,41281
59600,41281
59700,41281
59731,41294
58439,40002
58439,40002
58439,40002
58364,39889
58337,39755
58337,35655
58329,35649
58292,35594
58257,35647
58173,35703
58075,35723
57721,35723
57626,35704
57542,35649
57504,35594
57469,35647
57386,35703
57288,35723
56933,35723
56838,35704
56754,35649
56717,35594
56682,35647
56599,35703
56500,35723
56146,35723
56051,35704
55967,35649
55929,35594
55894,35647
55884,35654
55884,35893
55884,35893
55862,36004
55858,36027
55782,36140
55771,36151
55929,36151
55930,36151
56041,36173
56063,36178
56176,36253
56176,36253
57357,37434
57433,37547
57437,37569
57459,37681
57459,37681
57459,41344
57467,41350
57504,41405
57539,41352
57623,41296
57721,41276
58075,41276
58170,41295
58254,41350
58291,41403
58296,41389
58367,41319
58459,41281
58558,41281
58573,41281
58635,41343
58635,41796
58628,41796
58628,41896
58635,41896
58635,42348
58573,42411
58558,42411
58459,42411
58367,42373
58296,42303
58290,42288
58257,42340
58173,42396
58075,42416
57721,42416
57626,42397
57542,42342
57504,42287
57469,42340
57386,42396
57288,42416
56933,42416
56838,42397
56754,42342
56717,42287
56682,42340
56599,42396
56500,42416
56146,42416
56051,42397
55967,42342
55929,42287
55894,42340
55811,42396
55713,42416
55359,42416
55263,42397
55180,42342
55142,42287
55107,42340
55024,42396
54926,42416
54571,42416
54476,42397
54392,42342
54355,42287
54320,42340
54236,42396
54138,42416
53784,42416
53689,42397
53613,42348
51083,42348
51066,42435
51011,42519
50928,42575
50830,42594
50030,42594
49934,42576
49850,42521
49794,42438
49775,42340
49775,41660
49793,41564
49848,41480
49931,41424
49946,41421
49940,41417
49812,41225
49767,41000
49812,40774
49940,40582
50061,40501
49898,40355
49798,40147
49797,40141
49797,39858
49798,39852
49898,39644
50070,39491
50287,39415
50380,39472
50380,39950
49844,39950
49797,39858
49797,40141
49844,40050
50380,40050
50380,40057
50480,40057
50480,40050
50480,39950
50480,39472
50572,39415
50789,39491
50961,39644
51061,39852
51062,39858
51015,39950
50480,39950
50480,40050
51015,40050
51062,40141
51061,40147
50961,40355
50798,40501
50919,40582
50965,40651
53930,40651
53993,40664
54056,40675
54875,40994
54878,40996
54882,40996
54935,41032
54989,41067
54992,41070
54995,41072
55031,41126
55067,41178
55068,41182
55070,41185
55083,41248
55097,41311
55096,41315
55097,41318
55097,41344
55105,41350
55142,41405
55177,41352
55260,41296
55359,41276
55713,41276
55808,41295
55892,41350
55930,41405
55965,41352
56048,41296
56146,41276
56500,41276
56596,41295
56679,41350
56717,41405
56752,41352
56762,41345
56762,37825
55785,36848
50965,36848
50919,36917
50798,36998
50961,37144
51061,37352
51062,37358
51015,37450
50480,37450
50480,37442
50380,37442
50380,37450
49844,37450
49797,37358
49798,37352
49898,37144
50061,36998
49940,36917
49812,36725
49767,36500
49812,36274
49940,36082
49946,36078
49934,36076
49850,36021
49794,35938
49776,35848
49074,35848
48940,35981
48940,36263
48922,36359
48867,36442
48784,36498
48780,36499
48781,36499
48865,36554
48921,36637
48940,36736
48940,37326
48922,37422
48867,37505
48784,37561
48778,37563
48778,37928
48800,37932
48884,37987
48940,38071
48949,38116
49797,38116
49797,37641
49844,37550
50380,37550
50380,38027
50287,38084
50070,38008
49898,37855
49798,37647
49797,37641
49797,38116
50480,38116
50480,38027
50480,37550
51015,37550
51062,37641
51061,37647
50961,37855
50789,38008
50572,38084
50480,38027
50480,38116
52453,38116
52584,37984
52808,37891
53050,37891
53274,37984
53445,38154
53538,38378
53538,38620
53445,38844
53275,39015
53051,39108
52809,39108
52585,39015
52414,38845
52401,38812
48950,38812
48941,38855
48886,38938
48803,38995
48705,39014
48154,39014
48059,38996
47975,38941
47919,38858
47899,38759
47899,42950
47904,42950
47904,41880
47904,41647
47904,41422
47904,41190
47942,41098
48012,41028
48104,40990
48204,40990
48317,40990
48380,41052
48380,41485
47966,41485
47904,41422
47904,41647
47966,41585
48380,41585
48380,42018
48317,42080
48204,42080
48104,42080
48012,42042
47942,41972
47904,41880
47904,42950
48480,42950
48480,42018
48480,41585
48480,41485
48480,41052
48542,40990
48655,40990
48755,40990
48847,41028
48917,41098
48955,41190
48955,41422
48893,41485
48480,41485
48480,41585
48893,41585
48955,41647
48955,41880
48917,41972
48847,42042
48755,42080
48655,42080
48542,42080
48480,42018
48480,42950
58735,42950
58735,42348
58735,41896
58735,41796
58735,41343
58798,41281
58813,41281
58912,41281
59004,41319
59075,41389
59079,41400
59084,41389
59154,41319
59246,41281
59345,41281
59360,41281
59423,41343
59423,41796
59108,41796
59079,41767
59050,41796
58735,41796
58735,41896
59050,41896
59079,41925
59108,41896
59423,41896
59423,42348
59360,42411
59345,42411
59246,42411
59154,42373
59084,42303
59079,42291
59075,42303
59004,42373
58912,42411
58813,42411
58798,42411
58735,42348
58735,42950
59523,42950
59523,42348
59523,41896
59837,41896
59900,41958
59900,42211
59862,42303
59792,42373
59700,42411
59600,42411
59585,42411
59523,42348
59523,42950
69435,42950
69435,33359
69435,29422
69518,29220
69673,29065
69875,28981
69932,28981
71964,26764
71970,26760
71974,26753
72025,26719
72074,26684
72081,26682
72088,26678
72147,26666
72206,26651
72213,26653
72221,26651
72997,26651
73067,26547
73274,26408
73519,26360
74340,26360
74585,26408
74792,26547
74931,26755
74980,27000
74931,27244
74792,27452
74585,27591
74340,27640
73519,27640
73274,27591
73067,27452
72997,27348
72374,27348
70516,29376
70535,29421
70535,29640
70451,29842
70297,29997
70095,30081
69876,30081
69673,29998
69519,29843
69435,29641
69435,29422
69435,33359
69518,33157
69581,33094
69581,32000
69608,31866
69683,31753
69683,31753
72715,28722
72828,28646
72850,28642
72961,28620
72961,28620
72997,28620
73067,28515
73274,28377
73519,28328
74340,28328
74585,28377
74792,28515
74931,28723
74980,28968
74931,29213
74792,29421
74585,29559
74340,29608
73519,29608
73274,29559
73067,29421
73041,29381
70278,32144
70278,32994
70296,33001
70451,33156
70535,33358
70535,33577
70451,33779
70297,33934
70095,34018
69876,34018
69673,33935
69519,33780
69435,33578
69435,33359
69435,42950
69821,42950
69821,40379
69914,40155
70069,39999
69914,39845
69821,39621
69821,39379
69914,39155
70069,38999
69914,38845
69821,38621
69821,38379
69914,38155
70084,37984
70308,37891
70550,37891
70774,37984
70941,38151
71321,38151
71321,32379
71414,32155
71584,31984
71808,31891
72050,31891
72274,31984
72441,32151
72816,32151
72816,32141
72835,32046
72890,31962
72973,31906
73071,31886
73788,31886
73883,31905
73967,31960
74023,32043
74043,32141
74043,32858
74024,32953
73969,33037
73886,33093
73788,33113
73071,33113
72976,33094
72892,33039
72836,32956
72816,32858
72816,32848
72441,32848
72275,33015
72051,33108
71809,33108
71585,33015
71414,32845
71321,32621
71321,32379
71321,38151
71429,38151
71430,38151
71541,38173
71563,38178
71676,38253
71676,38253
73213,39790
73221,39784
73222,39784
72183,38746
72183,38746
72183,38746
72108,38633
72108,38633
72103,38611
72081,38500
72081,38500
72081,38499
72081,37000
72108,36866
72183,36753
72183,36753
72884,36053
72879,36031
72928,35786
73067,35578
73274,35440
73519,35391
74195,35391
74195,32595
74205,32353
74278,32177
74379,32142
74450,32213
74450,32071
74485,31970
74712,31887
74954,31897
75130,31970
75165,32071
74807,32429
74450,32071
74450,32213
74737,32500
74379,32857
74278,32822
74195,32595
74195,35391
74340,35391
74450,35413
74450,32928
74807,32570
74878,32641
74878,32500
75236,32142
75337,32177
75420,32404
75410,32646
75337,32822
75236,32857
74878,32500
74878,32641
75165,32928
75130,33029
74903,33112
74661,33102
74485,33029
74450,32928
74450,35413
74585,35440
74792,35578
74931,35786
74980,36031
74931,36276
74792,36484
74585,36622
74340,36671
73519,36671
73295,36626
72778,37144
72778,38355
74213,39790
74221,39784
74430,39743
74638,39784
74815,39903
74930,40074
75044,39903
75081,39878
75081,39644
74077,38640
73519,38640
73274,38591
73067,38452
72928,38244
72879,38000
72928,37755
73067,37547
73274,37408
73519,37360
74340,37360
74585,37408
74792,37547
74931,37755
74980,38000
74931,38244
74825,38403
75676,39253
75751,39366
75756,39388
75778,39500
75778,39500
75778,39878
75815,39903
75933,40080
75975,40288
75975,40711
75933,40919
75815,41096
75638,41215
75430,41256
75221,41215
75044,41096
74930,40925
74815,41096
74778,41121
74778,41500
74751,41633
74676,41746
74563,41821
74430,41848
71430,41848
71296,41821
71183,41746
71108,41633
71094,41566
71078,41563
70994,41508
70938,41425
70919,41326
70919,40870
70775,41015
70551,41108
70309,41108
70085,41015
69914,40845
69821,40621
69821,40379
69821,42950
76880,42950
76880,25050
47480,25050
47480,42950
" /> 
</g>
<g style="fill:#FFFFFF; fill-opacity:1.0; 
stroke:#FFFFFF; stroke-width:39.3701; stroke-opacity:1; 
stroke-linecap:round; stroke-linejoin:round;">
<circle cx="71930" cy="32500" r="149.606" /> 
<circle cx="62430" cy="39500" r="149.606" /> 
<circle cx="50430" cy="31000" r="149.606" /> 
<circle cx="53930" cy="31500" r="149.606" /> 
<circle cx="52930" cy="35000" r="149.606" /> 
<circle cx="52930" cy="38500" r="149.606" /> 
<circle cx="50430" cy="35500" r="180.315" /> 
<circle cx="50430" cy="36500" r="180.315" /> 
<circle cx="50430" cy="37500" r="180.315" /> 
<circle cx="57930" cy="34000" r="177.315" /> 
<circle cx="53930" cy="34000" r="177.315" /> 
<circle cx="73930" cy="38000" r="240.315" /> 
<circle cx="73930" cy="36031.5" r="240.315" /> 
<circle cx="73930" cy="27000" r="240.315" /> 
<circle cx="73930" cy="28968.5" r="240.315" /> 
<circle cx="50430" cy="42000" r="180.315" /> 
<circle cx="50430" cy="41000" r="180.315" /> 
<circle cx="50430" cy="40000" r="180.315" /> 
<circle cx="59930" cy="26000" r="177.315" /> 
<circle cx="59930" cy="30000" r="177.315" /> 
<circle cx="74430" cy="40500" r="177.315" /> 
<circle cx="75430" cy="40500" r="177.315" /> 
<circle cx="73430" cy="40500" r="177.315" /> 
<circle cx="69985.1" cy="33468.5" r="137.795" /> 
<circle cx="69985.1" cy="29531.5" r="137.795" /> 
<circle cx="61874.9" cy="28626" r="137.795" /> 
<circle cx="61874.9" cy="31500" r="137.795" /> 
<circle cx="61874.9" cy="34374" r="137.795" /> 
<circle cx="74808" cy="32500" r="137.795" /> 
<circle cx="73430" cy="32500" r="137.795" /> 
<circle cx="67430" cy="40500" r="140.315" /> 
<circle cx="67430" cy="39500" r="140.315" /> 
<circle cx="67430" cy="38500" r="140.315" /> 
<circle cx="70430" cy="38500" r="140.315" /> 
<circle cx="70430" cy="39500" r="140.315" /> 
<circle cx="70430" cy="40500" r="140.315" /> 
<circle cx="58430" cy="29500" r="140.315" /> 
<circle cx="57430" cy="29500" r="140.315" /> 
<circle cx="56430" cy="29500" r="140.315" /> 
<circle cx="55430" cy="29500" r="140.315" /> 
<circle cx="55430" cy="26500" r="140.315" /> 
<circle cx="56430" cy="26500" r="140.315" /> 
<circle cx="57430" cy="26500" r="140.315" /> 
<circle cx="58430" cy="26500" r="140.315" /> 
</g> 
</svg>
