<?xml version="1.0" standalone="no"?>
 <!DOCTYPE svg PUBLIC "-//W3C//DTD SVG 1.1//EN" 
 "http://www.w3.org/Graphics/SVG/1.1/DTD/svg11.dtd"> 
<svg xmlns="http://www.w3.org/2000/svg" version="1.1" 
    width="29.7002cm" height="21.0007cm" viewBox="0 0 116930 82680 ">
<title>SVG Picture created as pap-B_Cu.svg date 2015/04/10 17:49:45 </title>
  <desc>Picture generated by PCBNEW </desc>
<g style="fill:#000000; fill-opacity:1;stroke:#000000; stroke-opacity:1;
stroke-linecap:round; stroke-linejoin:round; "
 transform="translate(0 0) scale(1 1)">
</g>
<g style="fill:#000000; fill-opacity:0.0; 
stroke:#000000; stroke-width:39.3701; stroke-opacity:1; 
stroke-linecap:round; stroke-linejoin:round;">
</g>
<g style="fill:#000000; fill-opacity:1.0; 
stroke:#000000; stroke-width:39.3701; stroke-opacity:1; 
stroke-linecap:round; stroke-linejoin:round;">
<polyline style="fill-rule:evenodd;"
points="50810,35179
50049,35179
50049,35820
50810,35820
50810,35179
" /> 
</g>
<g style="fill:#000000; fill-opacity:1.0; 
stroke:#000000; stroke-width:680; stroke-opacity:1; 
stroke-linecap:round; stroke-linejoin:round;">
</g>
<g style="fill:#000000; fill-opacity:0.0; 
stroke:#000000; stroke-width:680; stroke-opacity:1; 
stroke-linecap:round; stroke-linejoin:round;">
<path d="M50370 36500
L50490 36500
" />
<path d="M50370 37500
L50490 37500
" />
</g>
<g style="fill:#000000; fill-opacity:0.0; 
stroke:#000000; stroke-width:39.3701; stroke-opacity:1; 
stroke-linecap:round; stroke-linejoin:round;">
</g>
<g style="fill:#000000; fill-opacity:1.0; 
stroke:#000000; stroke-width:39.3701; stroke-opacity:1; 
stroke-linecap:round; stroke-linejoin:round;">
<circle cx="57930" cy="34000" r="373.815" /> 
<circle cx="53930" cy="34000" r="373.815" /> 
</g>
<g style="fill:#000000; fill-opacity:1.0; 
stroke:#000000; stroke-width:780; stroke-opacity:1; 
stroke-linecap:round; stroke-linejoin:round;">
</g>
<g style="fill:#000000; fill-opacity:0.0; 
stroke:#000000; stroke-width:780; stroke-opacity:1; 
stroke-linecap:round; stroke-linejoin:round;">
<path d="M74320 38000
L73540 38000
" />
<path d="M74320 36031
L73540 36031
" />
<path d="M73540 27000
L74320 27000
" />
<path d="M73540 28968
L74320 28968
" />
</g>
<g style="fill:#000000; fill-opacity:0.0; 
stroke:#000000; stroke-width:39.3701; stroke-opacity:1; 
stroke-linecap:round; stroke-linejoin:round;">
</g>
<g style="fill:#000000; fill-opacity:1.0; 
stroke:#000000; stroke-width:39.3701; stroke-opacity:1; 
stroke-linecap:round; stroke-linejoin:round;">
<polyline style="fill-rule:evenodd;"
points="50049,42320
50810,42320
50810,41679
50049,41679
50049,42320
" /> 
</g>
<g style="fill:#000000; fill-opacity:1.0; 
stroke:#000000; stroke-width:680; stroke-opacity:1; 
stroke-linecap:round; stroke-linejoin:round;">
</g>
<g style="fill:#000000; fill-opacity:0.0; 
stroke:#000000; stroke-width:680; stroke-opacity:1; 
stroke-linecap:round; stroke-linejoin:round;">
<path d="M50490 41000
L50370 41000
" />
<path d="M50490 40000
L50370 40000
" />
</g>
<g style="fill:#000000; fill-opacity:0.0; 
stroke:#000000; stroke-width:39.3701; stroke-opacity:1; 
stroke-linecap:round; stroke-linejoin:round;">
</g>
<g style="fill:#000000; fill-opacity:1.0; 
stroke:#000000; stroke-width:39.3701; stroke-opacity:1; 
stroke-linecap:round; stroke-linejoin:round;">
<circle cx="59930" cy="26000" r="373.815" /> 
<circle cx="59930" cy="30000" r="373.815" /> 
</g>
<g style="fill:#000000; fill-opacity:1.0; 
stroke:#000000; stroke-width:591; stroke-opacity:1; 
stroke-linecap:round; stroke-linejoin:round;">
</g>
<g style="fill:#000000; fill-opacity:0.0; 
stroke:#000000; stroke-width:591; stroke-opacity:1; 
stroke-linecap:round; stroke-linejoin:round;">
<path d="M74430 40696
L74430 40303
" />
<path d="M75430 40696
L75430 40303
" />
<path d="M73430 40696
L73430 40303
" />
</g>
<g style="fill:#000000; fill-opacity:0.0; 
stroke:#000000; stroke-width:39.3701; stroke-opacity:1; 
stroke-linecap:round; stroke-linejoin:round;">
</g>
<g style="fill:#000000; fill-opacity:1.0; 
stroke:#000000; stroke-width:39.3701; stroke-opacity:1; 
stroke-linecap:round; stroke-linejoin:round;">
<circle cx="69985.1" cy="33468.5" r="280.315" /> 
<circle cx="69985.1" cy="29531.5" r="280.315" /> 
<circle cx="61874.9" cy="28626" r="280.315" /> 
<circle cx="61874.9" cy="31500" r="280.315" /> 
<circle cx="61874.9" cy="34374" r="280.315" /> 
<circle cx="74808" cy="32500" r="338.583" /> 
<polyline style="fill-rule:evenodd;"
points="73091,32161
73091,32838
73768,32838
73768,32161
73091,32161
" /> 
<polyline style="fill-rule:evenodd;"
points="67091,40838
67768,40838
67768,40161
67091,40161
67091,40838
" /> 
<circle cx="67430" cy="39500" r="338.583" /> 
<circle cx="67430" cy="38500" r="338.583" /> 
<circle cx="70430" cy="38500" r="338.583" /> 
<circle cx="70430" cy="39500" r="338.583" /> 
<circle cx="70430" cy="40500" r="338.583" /> 
<polyline style="fill-rule:evenodd;"
points="58768,29838
58768,29161
58091,29161
58091,29838
58768,29838
" /> 
<circle cx="57430" cy="29500" r="338.583" /> 
<circle cx="56430" cy="29500" r="338.583" /> 
<circle cx="55430" cy="29500" r="338.583" /> 
<circle cx="55430" cy="26500" r="338.583" /> 
<circle cx="56430" cy="26500" r="338.583" /> 
<circle cx="57430" cy="26500" r="338.583" /> 
<circle cx="58430" cy="26500" r="338.583" /> 
<circle cx="71930" cy="32500" r="338.583" /> 
<circle cx="62430" cy="39500" r="338.583" /> 
<circle cx="50430" cy="31000" r="338.583" /> 
<circle cx="53930" cy="31500" r="338.583" /> 
<circle cx="52930" cy="35000" r="338.583" /> 
<circle cx="52930" cy="38500" r="338.583" /> 
</g>
<g style="fill:#000000; fill-opacity:1.0; 
stroke:#000000; stroke-width:196.85; stroke-opacity:1; 
stroke-linecap:round; stroke-linejoin:round;">
</g>
<g style="fill:#000000; fill-opacity:0.0; 
stroke:#000000; stroke-width:196.85; stroke-opacity:1; 
stroke-linecap:round; stroke-linejoin:round;">
<path d="M71930 32500
L65430 32500
" />
<path d="M65430 32500
L62430 39500
" />
<path d="M50430 31000
L50930 31500
" />
<path d="M50930 31500
L53930 31500
" />
<path d="M52930 35000
L52930 38500
" />
</g>
<g style="fill:#000000; fill-opacity:1.0; 
stroke:#000000; stroke-width:100; stroke-opacity:1; 
stroke-linecap:round; stroke-linejoin:round;">
<polyline style="fill-rule:evenodd;"
points="47480,42950
49767,42950
49767,41000
49767,36500
49812,36274
49940,36082
49946,36078
49934,36076
49850,36021
49794,35938
49775,35840
49775,35160
49793,35064
49821,35022
49821,30879
49914,30655
50084,30484
50308,30391
50550,30391
50774,30484
50945,30654
51038,30878
51038,31115
51074,31151
53418,31151
53584,30984
53808,30891
54050,30891
54274,30984
54445,31154
54538,31378
54538,31620
54445,31844
54275,32015
54051,32108
53809,32108
53585,32015
53418,31848
50930,31848
50930,31848
50930,31848
50818,31826
50796,31821
50796,31821
50683,31746
50545,31608
50309,31608
50085,31515
49914,31345
49821,31121
49821,30879
49821,35022
49848,34980
49931,34924
50030,34905
50830,34905
50925,34923
51009,34978
51065,35061
51084,35160
51084,35840
51066,35935
51011,36019
50928,36075
50913,36078
50919,36082
51047,36274
51092,36500
51047,36725
50919,36917
50798,36998
50961,37144
51061,37352
51062,37358
51015,37450
50480,37450
50480,37442
50380,37442
50380,37450
49844,37450
49797,37358
49798,37352
49898,37144
50061,36998
49940,36917
49812,36725
49767,36500
49767,41000
49812,40774
49940,40582
50061,40501
49898,40355
49798,40147
49797,40141
49797,39858
49797,37641
49844,37550
50380,37550
50380,38027
50287,38084
50070,38008
49898,37855
49798,37647
49797,37641
49797,39858
49798,39852
49898,39644
50070,39491
50287,39415
50380,39472
50380,39950
49844,39950
49797,39858
49797,40141
49844,40050
50380,40050
50380,40057
50480,40057
50480,40050
50480,39950
50480,39472
50480,38027
50480,37550
51015,37550
51062,37641
51061,37647
50961,37855
50789,38008
50572,38084
50480,38027
50480,39472
50572,39415
50789,39491
50961,39644
51061,39852
51062,39858
51015,39950
50480,39950
50480,40050
51015,40050
51062,40141
51061,40147
50961,40355
50798,40501
50919,40582
51047,40774
51092,41000
51047,41225
50919,41417
50913,41421
50925,41423
51009,41478
51065,41561
51084,41660
51084,42340
51066,42435
51011,42519
50928,42575
50830,42594
50030,42594
49934,42576
49850,42521
49794,42438
49775,42340
49775,41660
49793,41564
49848,41480
49931,41424
49946,41421
49940,41417
49812,41225
49767,41000
49767,42950
52321,42950
52321,38379
52414,38155
52581,37988
52581,35511
52414,35345
52321,35121
52321,34879
52414,34655
52584,34484
52808,34391
53050,34391
53274,34484
53286,34496
53286,33872
53384,33635
53565,33454
53801,33356
54057,33356
54294,33454
54475,33635
54573,33871
54573,34127
54475,34364
54294,34545
54058,34643
53802,34643
53565,34545
53384,34364
53286,34128
53286,33872
53286,34496
53445,34654
53538,34878
53538,35120
53445,35344
53278,35511
53278,37988
53445,38154
53538,38378
53538,38620
53445,38844
53275,39015
53051,39108
52809,39108
52585,39015
52414,38845
52321,38621
52321,38379
52321,42950
54817,42950
54817,29595
54821,29489
54821,26379
54914,26155
55084,25984
55308,25891
55550,25891
55774,25984
55930,26139
56084,25984
56308,25891
56550,25891
56774,25984
56930,26139
57084,25984
57308,25891
57550,25891
57774,25984
57930,26139
58084,25984
58308,25891
58550,25891
58774,25984
58945,26154
59038,26378
59038,26620
58945,26844
58775,27015
58551,27108
58309,27108
58085,27015
57929,26860
57775,27015
57551,27108
57309,27108
57085,27015
56929,26860
56775,27015
56551,27108
56309,27108
56085,27015
55929,26860
55775,27015
55551,27108
55309,27108
55085,27015
54914,26845
54821,26621
54821,26379
54821,29489
54827,29353
54900,29177
55001,29142
55072,29213
55072,29071
55107,28970
55334,28887
55576,28897
55752,28970
55787,29071
55430,29429
55072,29071
55072,29213
55359,29500
55001,29857
54900,29822
54817,29595
54817,42950
55072,42950
55072,29928
55430,29570
55500,29641
55500,29500
55858,29142
55911,29160
55914,29155
56084,28984
56308,28891
56550,28891
56774,28984
56930,29139
57084,28984
57308,28891
57550,28891
57774,28984
57835,29045
57890,28962
57973,28906
58071,28886
58788,28886
58883,28905
58967,28960
59023,29043
59043,29141
59043,29858
59024,29953
58969,30037
58886,30093
58788,30113
58071,30113
57976,30094
57892,30039
57836,29956
57836,29954
57775,30015
57551,30108
57309,30108
57085,30015
56929,29860
56775,30015
56551,30108
56309,30108
56085,30015
55914,29845
55912,29839
55858,29857
55500,29500
55500,29641
55787,29928
55752,30029
55525,30112
55283,30102
55107,30029
55072,29928
55072,42950
57286,42950
57286,33872
57384,33635
57565,33454
57801,33356
58057,33356
58294,33454
58475,33635
58573,33871
58573,34127
58475,34364
58294,34545
58058,34643
57802,34643
57565,34545
57384,34364
57286,34128
57286,33872
57286,42950
59286,42950
59286,29872
59286,25872
59384,25635
59565,25454
59801,25356
60057,25356
60294,25454
60475,25635
60573,25871
60573,26127
60475,26364
60294,26545
60058,26643
59802,26643
59565,26545
59384,26364
59286,26128
59286,25872
59286,29872
59384,29635
59565,29454
59801,29356
60057,29356
60294,29454
60475,29635
60573,29871
60573,30127
60475,30364
60294,30545
60058,30643
59802,30643
59565,30545
59384,30364
59286,30128
59286,29872
59286,42950
61324,42950
61324,34265
61324,31391
61324,28517
61408,28314
61562,28159
61765,28076
61983,28075
62186,28159
62340,28314
62424,28516
62424,28734
62341,28937
62186,29091
61984,29175
61765,29176
61563,29092
61408,28937
61324,28735
61324,28517
61324,31391
61408,31188
61562,31034
61765,30950
61983,30949
62186,31033
62340,31188
62424,31390
62424,31608
62341,31811
62186,31965
61984,32049
61765,32050
61563,31966
61408,31811
61324,31609
61324,31391
61324,34265
61408,34062
61562,33908
61765,33824
61983,33823
62186,33907
62340,34062
62424,34264
62424,34482
62341,34685
62186,34840
61984,34923
61765,34924
61563,34840
61408,34685
61324,34483
61324,34265
61324,42950
61821,42950
61821,39379
61914,39155
62084,38984
62308,38891
62311,38891
65109,32362
65147,32308
65183,32253
65185,32252
65186,32250
65241,32214
65296,32178
65298,32177
65300,32176
65365,32164
65430,32151
69435,32151
69435,29422
69518,29220
69673,29065
69875,28981
70094,28981
70296,29064
70451,29219
70535,29421
70535,29640
70451,29842
70297,29997
70095,30081
69876,30081
69673,29998
69519,29843
69435,29641
69435,29422
69435,32151
71418,32151
71584,31984
71808,31891
72050,31891
72274,31984
72445,32154
72538,32378
72538,32620
72445,32844
72275,33015
72051,33108
71809,33108
71585,33015
71418,32848
65659,32848
62951,39168
63038,39378
63038,39620
62945,39844
62775,40015
62551,40108
62309,40108
62085,40015
61914,39845
61821,39621
61821,39379
61821,42950
66816,42950
66816,40858
66816,40141
66817,40139
66835,40046
66890,39962
66965,39911
66956,39902
67001,39857
66900,39822
66817,39595
66821,39489
66821,38379
66914,38155
67084,37984
67308,37891
67550,37891
67774,37984
67945,38154
68038,38378
68038,38620
67945,38844
67775,39015
67769,39017
67787,39071
67430,39429
67072,39071
67090,39018
67085,39015
66914,38845
66821,38621
66821,38379
66821,39489
66827,39353
66900,39177
67001,39142
67359,39500
67353,39505
67424,39576
67430,39570
67435,39576
67500,39511
67506,39505
67500,39500
67858,39142
67959,39177
68042,39404
68032,39646
67959,39822
67858,39857
67903,39902
67893,39911
67967,39960
68023,40043
68043,40141
68043,40858
68024,40953
67969,41037
67886,41093
67788,41113
67071,41113
66976,41094
66892,41039
66836,40956
66816,40858
66816,42950
69435,42950
69435,33359
69518,33157
69673,33002
69875,32918
70094,32918
70296,33001
70451,33156
70535,33358
70535,33577
70451,33779
70297,33934
70095,34018
69876,34018
69673,33935
69519,33780
69435,33578
69435,33359
69435,42950
69821,42950
69821,40379
69914,40155
70069,39999
69914,39845
69821,39621
69821,39379
69914,39155
70069,38999
69914,38845
69821,38621
69821,38379
69914,38155
70084,37984
70308,37891
70550,37891
70774,37984
70945,38154
71038,38378
71038,38620
70945,38844
70790,39000
70945,39154
71038,39378
71038,39620
70945,39844
70790,40000
70945,40154
71038,40378
71038,40620
70945,40844
70775,41015
70551,41108
70309,41108
70085,41015
69914,40845
69821,40621
69821,40379
69821,42950
72816,42950
72816,32858
72816,32141
72835,32046
72879,31978
72879,28968
72879,27000
72928,26755
73067,26547
73274,26408
73519,26360
74340,26360
74585,26408
74792,26547
74931,26755
74980,27000
74931,27244
74792,27452
74585,27591
74340,27640
73519,27640
73274,27591
73067,27452
72928,27244
72879,27000
72879,28968
72928,28723
73067,28515
73274,28377
73519,28328
74340,28328
74585,28377
74792,28515
74931,28723
74980,28968
74931,29213
74792,29421
74585,29559
74340,29608
73519,29608
73274,29559
73067,29421
72928,29213
72879,28968
72879,31978
72890,31962
72973,31906
73071,31886
73788,31886
73883,31905
73967,31960
74023,32043
74043,32141
74043,32858
74024,32953
73969,33037
73886,33093
73788,33113
73071,33113
72976,33094
72892,33039
72836,32956
72816,32858
72816,42950
72879,42950
72879,38000
72879,36031
72928,35786
73067,35578
73274,35440
73519,35391
74195,35391
74195,32595
74205,32353
74278,32177
74379,32142
74450,32213
74450,32071
74485,31970
74712,31887
74954,31897
75130,31970
75165,32071
74807,32429
74450,32071
74450,32213
74737,32500
74379,32857
74278,32822
74195,32595
74195,35391
74340,35391
74450,35413
74450,32928
74807,32570
74878,32641
74878,32500
75236,32142
75337,32177
75420,32404
75410,32646
75337,32822
75236,32857
74878,32500
74878,32641
75165,32928
75130,33029
74903,33112
74661,33102
74485,33029
74450,32928
74450,35413
74585,35440
74792,35578
74931,35786
74980,36031
74931,36276
74792,36484
74585,36622
74340,36671
73519,36671
73274,36622
73067,36484
72928,36276
72879,36031
72879,38000
72928,37755
73067,37547
73274,37408
73519,37360
74340,37360
74585,37408
74792,37547
74931,37755
74980,38000
74931,38244
74792,38452
74585,38591
74340,38640
73519,38640
73274,38591
73067,38452
72928,38244
72879,38000
72879,42950
72884,42950
72884,40711
72884,40288
72926,40080
73044,39903
73221,39784
73430,39743
73638,39784
73815,39903
73930,40074
74044,39903
74221,39784
74430,39743
74638,39784
74815,39903
74930,40074
75044,39903
75221,39784
75430,39743
75638,39784
75815,39903
75933,40080
75975,40288
75975,40711
75933,40919
75815,41096
75638,41215
75430,41256
75221,41215
75044,41096
74930,40925
74815,41096
74638,41215
74430,41256
74221,41215
74044,41096
73930,40925
73815,41096
73638,41215
73430,41256
73221,41215
73044,41096
72926,40919
72884,40711
72884,42950
76880,42950
76880,25050
47480,25050
47480,42950
" /> 
</g>
<g style="fill:#FFFFFF; fill-opacity:1.0; 
stroke:#FFFFFF; stroke-width:39.3701; stroke-opacity:1; 
stroke-linecap:round; stroke-linejoin:round;">
<circle cx="71930" cy="32500" r="149.606" /> 
<circle cx="62430" cy="39500" r="149.606" /> 
<circle cx="50430" cy="31000" r="149.606" /> 
<circle cx="53930" cy="31500" r="149.606" /> 
<circle cx="52930" cy="35000" r="149.606" /> 
<circle cx="52930" cy="38500" r="149.606" /> 
<circle cx="50430" cy="35500" r="180.315" /> 
<circle cx="50430" cy="36500" r="180.315" /> 
<circle cx="50430" cy="37500" r="180.315" /> 
<circle cx="57930" cy="34000" r="177.315" /> 
<circle cx="53930" cy="34000" r="177.315" /> 
<circle cx="73930" cy="38000" r="240.315" /> 
<circle cx="73930" cy="36031.5" r="240.315" /> 
<circle cx="73930" cy="27000" r="240.315" /> 
<circle cx="73930" cy="28968.5" r="240.315" /> 
<circle cx="50430" cy="42000" r="180.315" /> 
<circle cx="50430" cy="41000" r="180.315" /> 
<circle cx="50430" cy="40000" r="180.315" /> 
<circle cx="59930" cy="26000" r="177.315" /> 
<circle cx="59930" cy="30000" r="177.315" /> 
<circle cx="74430" cy="40500" r="177.315" /> 
<circle cx="75430" cy="40500" r="177.315" /> 
<circle cx="73430" cy="40500" r="177.315" /> 
<circle cx="69985.1" cy="33468.5" r="137.795" /> 
<circle cx="69985.1" cy="29531.5" r="137.795" /> 
<circle cx="61874.9" cy="28626" r="137.795" /> 
<circle cx="61874.9" cy="31500" r="137.795" /> 
<circle cx="61874.9" cy="34374" r="137.795" /> 
<circle cx="74808" cy="32500" r="137.795" /> 
<circle cx="73430" cy="32500" r="137.795" /> 
<circle cx="67430" cy="40500" r="140.315" /> 
<circle cx="67430" cy="39500" r="140.315" /> 
<circle cx="67430" cy="38500" r="140.315" /> 
<circle cx="70430" cy="38500" r="140.315" /> 
<circle cx="70430" cy="39500" r="140.315" /> 
<circle cx="70430" cy="40500" r="140.315" /> 
<circle cx="58430" cy="29500" r="140.315" /> 
<circle cx="57430" cy="29500" r="140.315" /> 
<circle cx="56430" cy="29500" r="140.315" /> 
<circle cx="55430" cy="29500" r="140.315" /> 
<circle cx="55430" cy="26500" r="140.315" /> 
<circle cx="56430" cy="26500" r="140.315" /> 
<circle cx="57430" cy="26500" r="140.315" /> 
<circle cx="58430" cy="26500" r="140.315" /> 
</g> 
</svg>
