<?xml version="1.0" standalone="no"?>
 <!DOCTYPE svg PUBLIC "-//W3C//DTD SVG 1.1//EN" 
 "http://www.w3.org/Graphics/SVG/1.1/DTD/svg11.dtd"> 
<svg xmlns="http://www.w3.org/2000/svg" version="1.1" 
    width="29.7002cm" height="21.0007cm" viewBox="0 0 116930 82680 ">
<title>SVG Picture created as pap-F_SilkS.svg date 2015/04/10 17:49:45 </title>
  <desc>Picture generated by PCBNEW </desc>
<g style="fill:#000000; fill-opacity:1;stroke:#000000; stroke-opacity:1;
stroke-linecap:round; stroke-linejoin:round; "
 transform="translate(0 0) scale(1 1)">
</g>
<g style="fill:#000000; fill-opacity:0.0; 
stroke:#000000; stroke-width:59.0551; stroke-opacity:1; 
stroke-linecap:round; stroke-linejoin:round;">
<path d="M55733 30165
L56126 30165
" />
<path d="M56126 30834
L55733 30834
" />
<path d="M51680 28400
L51130 28400
" />
<path d="M51780 28350
L51080 28350
" />
<path d="M51930 28300
L50930 28300
" />
<path d="M50880 28250
L51980 28250
" />
<path d="M52030 28200
L50830 28200
" />
<path d="M50780 28150
L52080 28150
" />
<path d="M52130 28100
L50730 28100
" />
<circle cx="51430" cy="27500" r="950" /> 
<path d="M52480 28550
L52480 26750
" />
<path d="M52480 26750
L52180 26450
" />
<path d="M52180 26450
L50680 26450
" />
<path d="M50680 26450
L50380 26750
" />
<path d="M50380 26750
L50380 28550
" />
<path d="M50380 28550
L52480 28550
" />
<path d="M51430 26650
L51430 26950
" />
<path d="M51580 26800
L51280 26800
" />
<path d="M58630 30850
L59230 30850
" />
<path d="M59380 30900
L58480 30900
" />
<path d="M58380 30950
L59480 30950
" />
<path d="M59580 31000
L58280 31000
" />
<path d="M58230 31050
L59630 31050
" />
<circle cx="58930" cy="32000" r="1200" /> 
<path d="M57630 30700
L60230 30700
" />
<path d="M60230 30700
L60230 33000
" />
<path d="M60230 33000
L59930 33300
" />
<path d="M59930 33300
L57930 33300
" />
<path d="M57930 33300
L57630 33000
" />
<path d="M57630 33000
L57630 30700
" />
<path d="M58930 32850
L58930 32550
" />
<path d="M58780 32700
L59080 32700
" />
<path d="M55044 33267
L55044 33110
" />
<path d="M55044 31732
L55044 31889
" />
<path d="M56815 31732
L56815 31889
" />
<path d="M56815 33267
L56815 33110
" />
<path d="M56402 31732
L56402 31889
" />
<path d="M56402 31889
L56461 31889
" />
<path d="M56461 31889
L56461 31732
" />
<path d="M56402 33267
L56402 33110
" />
<path d="M56402 33110
L56461 33110
" />
<path d="M56461 33110
L56461 33267
" />
<path d="M55044 33267
L56815 33267
" />
<path d="M56815 31732
L55044 31732
" />
<path d="M60260 35311
L60260 41688
" />
<path d="M51599 35311
L51599 41688
" />
<path d="M51599 41688
L60260 41688
" />
<path d="M51599 35311
L60260 35311
" />
<path d="M49819 35500
L49819 34889
" />
<path d="M49819 34889
L51040 34889
" />
<path d="M51040 34889
L51040 35500
" />
<path d="M49930 36000
L49930 38000
" />
<path d="M49930 38000
L50930 38000
" />
<path d="M50930 38000
L50930 36000
" />
<path d="M50930 36000
L49930 36000
" />
<circle cx="50430" cy="32000" r="1969" /> 
<path d="M50430 29638
L48461 29638
" />
<path d="M48461 29638
L48068 30031
" />
<path d="M48068 30031
L48068 33969
" />
<path d="M48068 33969
L48461 34362
" />
<path d="M48461 34362
L52399 34362
" />
<path d="M52399 34362
L52792 33969
" />
<path d="M52792 33969
L52792 30031
" />
<path d="M52792 30031
L52399 29638
" />
<path d="M52399 29638
L50430 29638
" />
<path d="M56930 33500
L54930 33500
" />
<path d="M54930 33500
L54930 34500
" />
<path d="M54930 34500
L56930 34500
" />
<path d="M56930 34500
L56930 33500
" />
<path d="M56930 34000
L57430 34000
" />
<path d="M54930 34000
L54430 34000
" />
<path d="M72930 38495
L72930 37495
" />
<path d="M72930 37495
L74030 37495
" />
<path d="M74030 38495
L74030 37495
" />
<path d="M72930 38495
L74030 38495
" />
<path d="M72930 36525
L72930 35525
" />
<path d="M72930 35525
L74030 35525
" />
<path d="M74030 36525
L74030 35525
" />
<path d="M72930 36525
L74030 36525
" />
<path d="M76380 35005
L75180 35005
" />
<path d="M76380 35005
L76380 39015
" />
<path d="M76380 35005
L76380 34805
" />
<path d="M76380 34805
L74480 34805
" />
<path d="M74480 34805
L74580 35005
" />
<path d="M71780 34805
L71880 35005
" />
<path d="M71880 35005
L71480 35005
" />
<path d="M72430 34805
L72330 35005
" />
<path d="M72330 35005
L71880 35005
" />
<path d="M72430 34805
L71780 34805
" />
<path d="M71480 36825
L72230 36825
" />
<path d="M74030 35225
L72230 35225
" />
<path d="M71480 36825
L71480 35225
" />
<path d="M71480 35225
L71480 35005
" />
<path d="M71480 37195
L72230 37195
" />
<path d="M71480 37195
L71480 36825
" />
<path d="M74030 38795
L72230 38795
" />
<path d="M71480 39015
L71480 38795
" />
<path d="M71480 38795
L71480 37195
" />
<path d="M72230 36825
L72230 35225
" />
<path d="M72230 36825
L74030 36825
" />
<path d="M72230 35225
L71480 35225
" />
<path d="M72230 37195
L72230 38795
" />
<path d="M72230 37195
L74030 37195
" />
<path d="M72230 38795
L71480 38795
" />
<path d="M72480 35375
L73730 35375
" />
<path d="M72480 35375
L72480 36675
" />
<path d="M72480 36675
L73730 36675
" />
<path d="M72480 37345
L73730 37345
" />
<path d="M72480 37345
L72480 38645
" />
<path d="M72480 38645
L73730 38645
" />
<path d="M73730 38645
L73730 38495
" />
<path d="M73730 37345
L73730 37495
" />
<path d="M73730 36675
L73730 36525
" />
<path d="M73730 35375
L73730 35525
" />
<path d="M71480 39015
L74180 39015
" />
<path d="M74180 39015
L75180 39015
" />
<path d="M74580 35005
L74180 35005
" />
<path d="M74180 35005
L72330 35005
" />
<path d="M75180 39015
L75180 35005
" />
<path d="M75180 39015
L76380 39015
" />
<path d="M75180 35005
L74580 35005
" />
<path d="M75280 36825
L76280 36825
" />
<path d="M76280 36825
L76280 35225
" />
<path d="M76280 35225
L75280 35225
" />
<path d="M75280 35225
L75280 36825
" />
<path d="M75280 37195
L76280 37195
" />
<path d="M75280 37195
L75280 38795
" />
<path d="M75280 38795
L76280 38795
" />
<path d="M76280 37195
L76280 38795
" />
<path d="M75680 36665
L75930 35465
" />
<path d="M75630 36615
L75880 35415
" />
<path d="M75680 38635
L75930 37434
" />
<path d="M75630 38585
L75880 37385
" />
<path d="M74030 38795
L74030 38645
" />
<path d="M74030 37195
L74030 37345
" />
<path d="M74030 37345
L74030 38645
" />
<path d="M74180 39015
L74180 38645
" />
<path d="M74180 38645
L74180 37345
" />
<path d="M74180 37345
L74180 36675
" />
<path d="M74180 35005
L74180 35375
" />
<path d="M74180 35375
L74180 36675
" />
<path d="M74030 35225
L74030 35375
" />
<path d="M74030 36825
L74030 36675
" />
<path d="M74030 36675
L74030 35375
" />
<path d="M75919 35426.9 A268.33 268.33 0.0 0 0 75538.4 35447.6 " />
<path d="M75551 35429.9 A960.8 960.8 0.0 0 0 75569.8 36606.2 " />
<path d="M75900 36665.9 A809.778 809.778 0.0 0 0 75920.9 35425.4 " />
<path d="M75555 36589.9 A233.692 233.692 0.0 0 0 75919.6 36645.7 " />
<path d="M75919 37395.9 A269.072 269.072 0.0 0 0 75537.4 37417.7 " />
<path d="M75551 37398.9 A960.8 960.8 0.0 0 0 75569.8 38575.2 " />
<path d="M75900 38635.9 A811.333 811.333 0.0 0 0 75922.9 37393.1 " />
<path d="M75555 38558.9 A233.206 233.206 0.0 0 0 75918.6 38616 " />
<path d="M74930 26504
L74930 27504
" />
<path d="M74930 27504
L73830 27504
" />
<path d="M73830 26504
L73830 27504
" />
<path d="M74930 26504
L73830 26504
" />
<path d="M74930 28474
L74930 29474
" />
<path d="M74930 29474
L73830 29474
" />
<path d="M73830 28474
L73830 29474
" />
<path d="M74930 28474
L73830 28474
" />
<path d="M71480 29994
L72680 29994
" />
<path d="M71480 29994
L71480 25984
" />
<path d="M71480 29994
L71480 30194
" />
<path d="M71480 30194
L73380 30194
" />
<path d="M73380 30194
L73280 29994
" />
<path d="M76080 30194
L75980 29994
" />
<path d="M75980 29994
L76380 29994
" />
<path d="M75430 30194
L75530 29994
" />
<path d="M75530 29994
L75980 29994
" />
<path d="M75430 30194
L76080 30194
" />
<path d="M76380 28174
L75630 28174
" />
<path d="M73830 29774
L75630 29774
" />
<path d="M76380 28174
L76380 29774
" />
<path d="M76380 29774
L76380 29994
" />
<path d="M76380 27804
L75630 27804
" />
<path d="M76380 27804
L76380 28174
" />
<path d="M73830 26204
L75630 26204
" />
<path d="M76380 25984
L76380 26204
" />
<path d="M76380 26204
L76380 27804
" />
<path d="M75630 28174
L75630 29774
" />
<path d="M75630 28174
L73830 28174
" />
<path d="M75630 29774
L76380 29774
" />
<path d="M75630 27804
L75630 26204
" />
<path d="M75630 27804
L73830 27804
" />
<path d="M75630 26204
L76380 26204
" />
<path d="M75380 29624
L74130 29624
" />
<path d="M75380 29624
L75380 28324
" />
<path d="M75380 28324
L74130 28324
" />
<path d="M75380 27654
L74130 27654
" />
<path d="M75380 27654
L75380 26354
" />
<path d="M75380 26354
L74130 26354
" />
<path d="M74130 26354
L74130 26504
" />
<path d="M74130 27654
L74130 27504
" />
<path d="M74130 28324
L74130 28474
" />
<path d="M74130 29624
L74130 29474
" />
<path d="M76380 25984
L73680 25984
" />
<path d="M73680 25984
L72680 25984
" />
<path d="M73280 29994
L73680 29994
" />
<path d="M73680 29994
L75530 29994
" />
<path d="M72680 25984
L72680 29994
" />
<path d="M72680 25984
L71480 25984
" />
<path d="M72680 29994
L73280 29994
" />
<path d="M72580 28174
L71580 28174
" />
<path d="M71580 28174
L71580 29774
" />
<path d="M71580 29774
L72580 29774
" />
<path d="M72580 29774
L72580 28174
" />
<path d="M72580 27804
L71580 27804
" />
<path d="M72580 27804
L72580 26204
" />
<path d="M72580 26204
L71580 26204
" />
<path d="M71580 27804
L71580 26204
" />
<path d="M72180 28334
L71930 29534
" />
<path d="M72230 28384
L71980 29584
" />
<path d="M72180 26364
L71930 27565
" />
<path d="M72230 26414
L71980 27614
" />
<path d="M73830 26204
L73830 26354
" />
<path d="M73830 27804
L73830 27654
" />
<path d="M73830 27654
L73830 26354
" />
<path d="M73680 25984
L73680 26354
" />
<path d="M73680 26354
L73680 27654
" />
<path d="M73680 27654
L73680 28324
" />
<path d="M73680 29994
L73680 29624
" />
<path d="M73680 29624
L73680 28324
" />
<path d="M73830 29774
L73830 29624
" />
<path d="M73830 28174
L73830 28324
" />
<path d="M73830 28324
L73830 29624
" />
<path d="M71941 29573.1 A268.33 268.33 0.0 0 0 72321.6 29552.4 " />
<path d="M72309 29570.1 A960.8 960.8 0.0 0 0 72290.2 28393.8 " />
<path d="M71960 28334.1 A809.778 809.778 0.0 0 0 71939.1 29574.6 " />
<path d="M72305 28410.1 A233.692 233.692 0.0 0 0 71940.4 28354.3 " />
<path d="M71941 27604.1 A269.072 269.072 0.0 0 0 72322.6 27582.3 " />
<path d="M72309 27601.1 A960.8 960.8 0.0 0 0 72290.2 26424.8 " />
<path d="M71960 26364.1 A811.333 811.333 0.0 0 0 71937.1 27606.9 " />
<path d="M72305 26441.1 A233.206 233.206 0.0 0 0 71941.4 26384 " />
<path d="M51040 42000
L51040 42610
" />
<path d="M51040 42610
L49819 42610
" />
<path d="M49819 42610
L49819 42000
" />
<path d="M50930 41500
L50930 39500
" />
<path d="M50930 39500
L49930 39500
" />
<path d="M49930 39500
L49930 41500
" />
<path d="M49930 41500
L50930 41500
" />
<path d="M71774 40736
L71774 40263
" />
<path d="M71085 40263
L71085 40736
" />
<path d="M48774 36736
L48774 36263
" />
<path d="M48085 36263
L48085 36736
" />
<path d="M59430 27000
L59430 29000
" />
<path d="M59430 29000
L60430 29000
" />
<path d="M60430 29000
L60430 27000
" />
<path d="M60430 27000
L59430 27000
" />
<path d="M59930 27000
L59930 26500
" />
<path d="M59930 29000
L59930 29500
" />
<path d="M54274 27736
L54274 27263
" />
<path d="M53585 27263
L53585 27736
" />
<path d="M53585 29763
L53585 30236
" />
<path d="M54274 30236
L54274 29763
" />
<path d="M49158 41200
L47701 41200
" />
<path d="M47701 41200
L47701 38799
" />
<path d="M49158 38799
L47701 38799
" />
<path d="M49158 41200
L49158 38799
" />
<path d="M75030 39300
L75030 39750
" />
<path d="M73830 39300
L73830 39750
" />
<path d="M72330 39750
L72330 41200
" />
<path d="M72330 41200
L76530 41200
" />
<path d="M76530 41200
L76530 39750
" />
<path d="M72330 39300
L72330 39750
" />
<path d="M72330 39750
L76530 39750
" />
<path d="M76530 39750
L76530 39300
" />
<path d="M74430 39300
L76530 39300
" />
<path d="M74430 39300
L72330 39300
" />
<path d="M63150 37669
L65709 37669
" />
<path d="M65709 37669
L65709 41330
" />
<path d="M65709 41330
L63150 41330
" />
<path d="M63150 37669
L63150 41330
" />
<path d="M70949 25929
L70949 37070
" />
<path d="M70949 37070
L60910 37070
" />
<path d="M60910 25929
L60910 37070
" />
<path d="M70949 25929
L60910 25929
" />
<path d="M74148 34074
L74148 30925
" />
<path d="M74203 34072
L74203 30927
" />
<path d="M74258 34068
L74258 30931
" />
<path d="M74313 34062
L74313 30937
" />
<path d="M74368 34054
L74368 30945
" />
<path d="M74424 34044
L74424 32587
" />
<path d="M74424 32412
L74424 30955
" />
<path d="M74479 34033
L74479 32716
" />
<path d="M74479 32283
L74479 30966
" />
<path d="M74534 34018
L74534 32783
" />
<path d="M74534 32216
L74534 30981
" />
<path d="M74589 34002
L74589 32827
" />
<path d="M74589 32172
L74589 30997
" />
<path d="M74644 33984
L74644 32858
" />
<path d="M74644 32141
L74644 31015
" />
<path d="M74699 33963
L74699 32878
" />
<path d="M74699 32121
L74699 31036
" />
<path d="M74754 33940
L74754 32890
" />
<path d="M74754 32109
L74754 31059
" />
<path d="M74809 33914
L74809 32893
" />
<path d="M74809 32106
L74809 31085
" />
<path d="M74865 33887
L74865 32889
" />
<path d="M74865 32110
L74865 31112
" />
<path d="M74920 33855
L74920 32877
" />
<path d="M74920 32122
L74920 31144
" />
<path d="M74975 33821
L74975 32856
" />
<path d="M74975 32143
L74975 31178
" />
<path d="M75030 33784
L75030 32824
" />
<path d="M75030 32175
L75030 31215
" />
<path d="M75085 33743
L75085 32779
" />
<path d="M75085 32220
L75085 31256
" />
<path d="M75140 33698
L75140 32710
" />
<path d="M75140 32289
L75140 31301
" />
<path d="M75195 33649
L75195 32568
" />
<path d="M75195 32431
L75195 31350
" />
<path d="M75250 33594
L75250 31405
" />
<path d="M75305 33535
L75305 31464
" />
<path d="M75361 33468
L75361 31531
" />
<path d="M75416 33392
L75416 31607
" />
<path d="M75471 33307
L75471 31692
" />
<path d="M75526 33206
L75526 31793
" />
<path d="M75581 33083
L75581 31916
" />
<path d="M75636 32920
L75636 32079
" />
<path d="M75691 32578
L75691 32421
" />
<circle cx="74808" cy="32500" r="393.701" /> 
<circle cx="74119" cy="32500" r="1589.57" /> 
<path d="M69930 41250
L69930 37750
" />
<path d="M69930 37750
L67930 37750
" />
<path d="M67930 37750
L67930 41250
" />
<path d="M67930 41250
L69930 41250
" />
<path d="M69180 41250
L69180 40750
" />
<path d="M69180 40750
L68680 40750
" />
<path d="M68680 40750
L68680 41250
" />
<path d="M58930 27500
L58430 27500
" />
<path d="M58430 27500
L58430 28500
" />
<path d="M58430 28500
L58930 28500
" />
<path d="M58930 27000
L54930 27000
" />
<path d="M54930 27000
L54930 29000
" />
<path d="M54930 29000
L58930 29000
" />
<path d="M58930 29000
L58930 27000
" />
<path d="M55995 29813
L56014 29832
L56070 29851
L56108 29851
L56164 29832
L56201 29795
L56220 29757
L56239 29682
L56239 29626
L56220 29551
L56201 29513
L56164 29476
L56108 29457
L56070 29457
L56014 29476
L55995 29495
" />
<path d="M55845 29495
L55826 29476
L55789 29457
L55695 29457
L55658 29476
L55639 29495
L55620 29532
L55620 29570
L55639 29626
L55864 29851
L55620 29851
" />
<path d="M52539 27565
L52520 27584
L52501 27640
L52501 27678
L52520 27734
L52558 27771
L52595 27790
L52670 27809
L52726 27809
L52801 27790
L52839 27771
L52876 27734
L52895 27678
L52895 27640
L52876 27584
L52858 27565
" />
<path d="M52895 27434
L52895 27190
L52745 27321
L52745 27265
L52726 27228
L52708 27209
L52670 27190
L52576 27190
L52539 27209
L52520 27228
L52501 27265
L52501 27378
L52520 27415
L52539 27434
" />
<path d="M57239 32065
L57220 32084
L57201 32140
L57201 32178
L57220 32234
L57258 32271
L57295 32290
L57370 32309
L57426 32309
L57501 32290
L57539 32271
L57576 32234
L57595 32178
L57595 32140
L57576 32084
L57558 32065
" />
<path d="M57464 31728
L57201 31728
" />
<path d="M57614 31821
L57333 31915
L57333 31671
" />
<path d="M56220 33859
L56220 33465
L56126 33465
L56070 33484
L56033 33521
L56014 33559
L55995 33634
L55995 33690
L56014 33765
L56033 33802
L56070 33840
L56126 33859
L56220 33859
" />
<path d="M55620 33859
L55845 33859
" />
<path d="M55733 33859
L55733 33465
L55770 33521
L55808 33559
L55845 33577
" />
<path d="M61551 38799
L61945 38799
" />
<path d="M61758 38799
L61758 38574
" />
<path d="M61551 38574
L61945 38574
" />
<path d="M61551 38181
L61551 38406
" />
<path d="M61551 38293
L61945 38293
L61889 38331
L61851 38368
L61833 38406
" />
<path d="M48637 35828
L48356 35828
L48300 35846
L48262 35884
L48244 35940
L48244 35978
" />
<path d="M48244 35640
L48637 35640
L48637 35490
L48618 35453
L48600 35434
L48562 35415
L48506 35415
L48468 35434
L48450 35453
L48431 35490
L48431 35640
" />
<path d="M48244 35040
L48244 35265
" />
<path d="M48244 35153
L48637 35153
L48581 35190
L48543 35228
L48525 35265
" />
<path d="M50534 31509
L50722 31509
L50722 31115
" />
<path d="M50197 31509
L50422 31509
" />
<path d="M50309 31509
L50309 31115
L50347 31171
L50384 31209
L50422 31227
" />
<path d="M55897 32800
L56085 32800
L56085 32406
" />
<path d="M55785 32443
L55766 32425
L55728 32406
L55635 32406
L55597 32425
L55578 32443
L55560 32481
L55560 32518
L55578 32575
L55803 32800
L55560 32800
" />
<path d="M76501 39046
L76895 39046
L76895 38896
L76876 38859
L76858 38840
L76820 38821
L76764 38821
L76726 38840
L76708 38859
L76689 38896
L76689 39046
" />
<path d="M76501 38446
L76501 38671
" />
<path d="M76501 38559
L76895 38559
L76839 38596
L76801 38634
L76783 38671
" />
<path d="M71001 26534
L71395 26534
L71395 26384
L71376 26347
L71358 26328
L71320 26309
L71264 26309
L71226 26328
L71208 26347
L71189 26384
L71189 26534
" />
<path d="M71358 26159
L71376 26140
L71395 26103
L71395 26009
L71376 25972
L71358 25953
L71320 25934
L71283 25934
L71226 25953
L71001 26178
L71001 25934
" />
<path d="M52259 42290
L52653 42290
L52653 42140
L52634 42103
L52615 42084
L52578 42065
L52522 42065
L52484 42084
L52465 42103
L52447 42140
L52447 42290
" />
<path d="M52653 41934
L52653 41690
L52503 41821
L52503 41765
L52484 41728
L52465 41709
L52428 41690
L52334 41690
L52297 41709
L52278 41728
L52259 41765
L52259 41878
L52278 41915
L52297 41934
" />
<path d="M70425 40565
L70612 40696
" />
<path d="M70425 40790
L70818 40790
L70818 40640
L70800 40603
L70781 40584
L70743 40565
L70687 40565
L70650 40584
L70631 40603
L70612 40640
L70612 40790
" />
<path d="M70425 40190
L70425 40415
" />
<path d="M70425 40303
L70818 40303
L70762 40340
L70725 40378
L70706 40415
" />
<path d="M47425 36565
L47612 36696
" />
<path d="M47425 36790
L47818 36790
L47818 36640
L47800 36603
L47781 36584
L47743 36565
L47687 36565
L47650 36584
L47631 36603
L47612 36640
L47612 36790
" />
<path d="M47781 36415
L47800 36396
L47818 36359
L47818 36265
L47800 36228
L47781 36209
L47743 36190
L47706 36190
L47650 36209
L47425 36434
L47425 36190
" />
<path d="M58373 28163
L58561 28294
" />
<path d="M58373 28388
L58767 28388
L58767 28238
L58748 28201
L58730 28182
L58692 28163
L58636 28163
L58598 28182
L58580 28201
L58561 28238
L58561 28388
" />
<path d="M58767 28032
L58767 27788
L58617 27919
L58617 27863
L58598 27826
L58580 27807
L58542 27788
L58448 27788
L58411 27807
L58392 27826
L58373 27863
L58373 27976
L58392 28013
L58411 28032
" />
<path d="M52925 27565
L53112 27696
" />
<path d="M52925 27790
L53318 27790
L53318 27640
L53300 27603
L53281 27584
L53243 27565
L53187 27565
L53150 27584
L53131 27603
L53112 27640
L53112 27790
" />
<path d="M53187 27228
L52925 27228
" />
<path d="M53337 27321
L53056 27415
L53056 27171
" />
<path d="M54578 30065
L54766 30196
" />
<path d="M54578 30290
L54972 30290
L54972 30140
L54953 30103
L54934 30084
L54897 30065
L54841 30065
L54803 30084
L54784 30103
L54766 30140
L54766 30290
" />
<path d="M54972 29709
L54972 29896
L54784 29915
L54803 29896
L54822 29859
L54822 29765
L54803 29728
L54784 29709
L54747 29690
L54653 29690
L54616 29709
L54597 29728
L54578 29765
L54578 29859
L54597 29896
L54616 29915
" />
<path d="M46370 40424
L46351 40368
L46351 40274
L46370 40237
L46389 40218
L46426 40199
L46464 40199
L46501 40218
L46520 40237
L46539 40274
L46558 40349
L46576 40387
L46595 40406
L46633 40424
L46670 40424
L46708 40406
L46726 40387
L46745 40349
L46745 40256
L46726 40199
" />
<path d="M46745 40068
L46351 39974
L46633 39899
L46351 39825
L46745 39731
" />
<path d="M46351 39375
L46351 39600
" />
<path d="M46351 39487
L46745 39487
L46689 39525
L46651 39562
L46633 39600
" />
<path d="M74729 38284
L74729 38603
L74711 38640
L74692 38659
L74654 38678
L74579 38678
L74542 38659
L74523 38640
L74504 38603
L74504 38284
" />
<path d="M74111 38678
L74336 38678
" />
<path d="M74223 38678
L74223 38284
L74261 38340
L74298 38378
L74336 38396
" />
<path d="M67458 39856
L67439 39799
L67420 39781
L67383 39762
L67326 39762
L67289 39781
L67270 39799
L67251 39837
L67251 39987
L67645 39987
L67645 39856
L67626 39818
L67608 39799
L67570 39781
L67533 39781
L67495 39799
L67476 39818
L67458 39856
L67458 39987
" />
<path d="M67251 39368
L67439 39500
" />
<path d="M67251 39593
L67645 39593
L67645 39443
L67626 39406
L67608 39387
L67570 39368
L67514 39368
L67476 39387
L67458 39406
L67439 39443
L67439 39593
" />
<path d="M67251 38993
L67251 39218
" />
<path d="M67251 39106
L67645 39106
L67589 39143
L67551 39181
L67533 39218
" />
<path d="M66229 37784
L66004 37784
" />
<path d="M66117 38178
L66117 37784
" />
<path d="M65667 38178
L65892 38178
" />
<path d="M65780 38178
L65780 37784
L65817 37840
L65855 37878
L65892 37896
" />
<path d="M74184 34727
L74203 34745
L74259 34764
L74297 34764
L74353 34745
L74390 34708
L74409 34670
L74428 34595
L74428 34539
L74409 34464
L74390 34427
L74353 34389
L74297 34371
L74259 34371
L74203 34389
L74184 34408
" />
<path d="M73809 34764
L74034 34764
" />
<path d="M73922 34764
L73922 34371
L73959 34427
L73997 34464
L74034 34483
" />
<path d="M69229 41784
L69229 42103
L69211 42140
L69192 42159
L69154 42178
L69079 42178
L69042 42159
L69023 42140
L69004 42103
L69004 41784
" />
<path d="M68836 41821
L68817 41803
L68780 41784
L68686 41784
L68648 41803
L68630 41821
L68611 41859
L68611 41896
L68630 41953
L68855 42178
L68611 42178
" />
<path d="M59645 28299
L59326 28299
L59289 28281
L59270 28262
L59251 28224
L59251 28149
L59270 28112
L59289 28093
L59326 28074
L59645 28074
" />
<path d="M59645 27925
L59645 27681
L59495 27812
L59495 27756
L59476 27718
L59458 27700
L59420 27681
L59326 27681
L59289 27700
L59270 27718
L59251 27756
L59251 27868
L59270 27906
L59289 27925
" />
</g> 
</svg>
